<?xml version="1.0" standalone="no"?>
<!DOCTYPE svg PUBLIC "-//W3C//DTD SVG 20010904//EN"
 "http://www.w3.org/TR/2001/REC-SVG-20010904/DTD/svg10.dtd">
<svg version="1.0" xmlns="http://www.w3.org/2000/svg"
 width="860.000000pt" height="1023.000000pt" viewBox="0 0 860.000000 1023.000000"
 preserveAspectRatio="xMidYMid meet">

<g transform="translate(0.000000,1023.000000) scale(0.100000,-0.100000)"
fill="#000000" stroke="none">
<path d="M4045 9808 c-182 -44 -250 -64 -339 -97 -506 -191 -852 -548 -1025
-1059 -75 -221 -90 -361 -91 -828 l0 -261 -287 -6 c-1140 -26 -1206 -29 -1260
-49 -86 -32 -142 -103 -163 -205 -5 -26 -16 -127 -25 -223 -39 -449 -46 -532
-55 -625 -6 -55 -14 -154 -20 -220 -5 -66 -23 -268 -40 -450 -17 -181 -35
-379 -40 -440 -6 -60 -14 -153 -20 -205 -9 -95 -18 -183 -65 -700 -14 -151
-32 -345 -40 -430 -13 -139 -22 -239 -55 -600 -5 -58 -17 -186 -25 -285 -9
-99 -22 -252 -30 -340 -8 -88 -21 -239 -30 -335 -51 -573 -76 -856 -85 -940
-35 -344 -42 -437 -38 -531 3 -97 5 -110 33 -154 20 -32 53 -65 100 -96 l70
-48 3786 -1 3786 0 60 39 c65 42 92 74 125 148 27 60 28 178 4 408 -30 293
-36 349 -45 460 -17 197 -77 864 -91 1010 -5 55 -23 251 -40 435 -16 184 -36
407 -45 495 -8 88 -24 261 -36 385 -11 124 -29 322 -39 440 -23 246 -45 487
-65 710 -8 85 -26 286 -40 445 -14 160 -39 436 -55 615 -16 179 -43 479 -60
667 -17 188 -37 363 -45 390 -26 87 -66 137 -137 171 l-63 31 -752 17 -753 18
0 105 c0 122 -8 419 -15 568 -15 319 -95 568 -263 818 -124 185 -321 377 -516
503 -162 105 -377 189 -607 236 -113 23 -148 26 -325 25 -110 -1 -217 -5 -239
-11z m445 -563 c373 -66 724 -347 868 -697 61 -146 72 -217 83 -513 6 -148 7
-316 4 -372 l-7 -103 -1139 0 -1139 0 0 274 c0 151 5 320 11 377 20 204 69
363 157 514 58 99 208 254 307 318 271 173 589 249 855 202z m-1905 -2565 l0
-285 -26 -55 c-14 -30 -56 -88 -93 -128 -128 -139 -166 -229 -166 -386 0 -159
53 -281 174 -401 116 -114 243 -168 396 -169 158 0 300 64 417 188 112 119
161 253 150 413 -12 175 -86 310 -240 439 l-37 31 0 322 0 321 1143 -2 1142
-3 0 -290 0 -290 -33 -61 c-18 -33 -62 -89 -97 -124 -115 -112 -150 -199 -150
-370 0 -134 21 -210 84 -307 164 -251 467 -333 741 -201 90 43 206 160 248
249 113 237 65 490 -126 670 -43 40 -82 82 -89 93 -9 15 -12 106 -13 329 l0
307 575 0 575 0 14 -22 c17 -27 24 -88 91 -858 14 -157 30 -330 35 -385 5 -55
30 -325 55 -600 24 -275 51 -572 60 -660 8 -88 33 -365 55 -615 22 -250 47
-529 55 -620 8 -91 22 -241 30 -335 47 -522 94 -1039 120 -1300 9 -88 18 -195
22 -237 l6 -78 -3403 0 -3402 0 6 53 c3 28 11 106 16 173 5 66 19 219 30 340
11 120 25 271 30 334 11 126 41 460 65 725 9 94 20 213 25 265 10 91 81 868
100 1095 6 61 14 153 20 205 5 52 21 223 35 380 14 157 32 357 40 445 22 245
63 703 85 960 6 66 17 190 25 275 8 85 19 213 26 285 6 71 15 140 20 152 l9
23 577 -2 578 -3 0 -285z"/>
</g>
</svg>
