<?xml version="1.0" standalone="no"?>
<!DOCTYPE svg PUBLIC "-//W3C//DTD SVG 20010904//EN"
 "http://www.w3.org/TR/2001/REC-SVG-20010904/DTD/svg10.dtd">
<svg version="1.0" xmlns="http://www.w3.org/2000/svg"
 width="980.000000pt" height="980.000000pt" viewBox="0 0 980.000000 980.000000"
 preserveAspectRatio="xMidYMid meet">

<g transform="translate(0.000000,980.000000) scale(0.100000,-0.100000)"
fill="#000000" stroke="none">
<path d="M4560 9789 c-1035 -75 -1992 -461 -2800 -1127 -148 -122 -500 -474
-622 -622 -881 -1068 -1270 -2403 -1098 -3765 119 -934 501 -1801 1124 -2545
98 -117 370 -393 496 -504 1328 -1166 3158 -1531 4825 -962 895 305 1700 879
2281 1627 735 946 1100 2126 1024 3314 -68 1063 -460 2035 -1154 2865 -109
131 -386 410 -531 534 -771 666 -1683 1061 -2705 1171 -174 19 -664 27 -840
14z m805 -503 c1518 -168 2821 -1079 3491 -2440 382 -776 527 -1644 418 -2501
-103 -805 -422 -1555 -936 -2199 -55 -69 -103 -126 -107 -126 -4 0 -23 35 -43
77 -94 198 -257 460 -406 651 -436 561 -1049 1001 -1689 1213 -56 19 -102 36
-103 39 0 3 37 33 83 67 472 350 759 898 784 1493 31 763 -387 1473 -1074
1823 -283 144 -552 207 -883 207 -331 0 -608 -66 -892 -211 -821 -422 -1235
-1348 -1003 -2244 107 -414 370 -804 717 -1063 48 -36 88 -68 88 -72 0 -3 -33
-16 -72 -29 -268 -85 -615 -258 -886 -440 -513 -345 -982 -887 -1240 -1434
-20 -42 -39 -77 -42 -77 -9 0 -119 135 -212 260 -753 1014 -1030 2282 -772
3535 229 1114 926 2135 1889 2768 654 429 1351 661 2165 721 117 8 591 -4 725
-18z m-230 -2201 c613 -99 1096 -574 1211 -1190 26 -137 26 -382 0 -520 -55
-300 -195 -564 -412 -781 -198 -198 -454 -337 -734 -399 -100 -22 -392 -31
-502 -16 -629 89 -1121 562 -1245 1196 -24 124 -24 396 0 520 121 619 595
1087 1206 1190 107 18 366 18 476 0z m255 -3449 c416 -69 775 -198 1123 -405
565 -336 1018 -849 1288 -1456 60 -136 60 -139 41 -154 -11 -9 -60 -50 -108
-92 -487 -416 -1111 -738 -1742 -900 -717 -184 -1465 -184 -2184 0 -607 155
-1188 450 -1686 854 -51 41 -113 94 -137 116 l-45 41 60 137 c443 1000 1367
1707 2435 1862 201 29 192 29 510 26 257 -2 308 -6 445 -29z"/>
</g>
</svg>
